<svg height='300px' width='300px'  fill="#000000" xmlns="http://www.w3.org/2000/svg" viewBox="0 0 48 48" x="0px" y="0px"><title>travel vol.1</title><g data-name="Layer 10"><path d="M38.48877,1.72119H8.895A7.19182,7.19182,0,0,0,1.75391,8.94678v4.43506A7.14893,7.14893,0,0,0,8.895,20.52246h1.55859V45.27881a1.00006,1.00006,0,0,0,1,1H35.93018a1.00006,1.00006,0,0,0,1-1V20.52246h1.55859a7.14893,7.14893,0,0,0,7.14111-7.14062V8.94678A7.19182,7.19182,0,0,0,38.48877,1.72119ZM34.93018,44.27881H12.45361V12.16455h2.47266v8.603a1,1,0,0,0,2,0v-8.603H30.93506v8.603a1,1,0,1,0,2,0v-8.603h1.99512V44.27881Zm8.6997-30.897a5.08608,5.08608,0,0,1-5.14111,5.14062H36.93018V12.16455h3.77636a1,1,0,0,0,0-2H35.93066l-.00024.00006-.00024-.00006H6.67725a1,1,0,1,0,0,2h3.77636v6.35791H8.895a5.08608,5.08608,0,0,1-5.14111-5.14062V8.94678A5.18968,5.18968,0,0,1,8.895,3.72119H38.48877a5.18968,5.18968,0,0,1,5.14111,5.22559Z"></path><path d="M23.69189,29.97705a5.95337,5.95337,0,1,0-5.95312-5.95361A5.96009,5.96009,0,0,0,23.69189,29.97705Zm0-9.90674a3.95337,3.95337,0,1,1-3.95312,3.95313A3.9577,3.9577,0,0,1,23.69189,20.07031Z"></path><path d="M31.93506,26.48291a1,1,0,0,0-1,1v8.13037c-2.17774.48877-3.36328,2.53467-3.85059,4.09717H20.65283a4.40108,4.40108,0,0,0-1.30224-2.61328,4.71282,4.71282,0,0,0-2.42432-1.168V27.48291a1,1,0,1,0-2,0v9.36133a1.00018,1.00018,0,0,0,1.05371.99853,3.05833,3.05833,0,0,1,1.99463.70606,2.85853,2.85853,0,0,1,.75049,2.16162,1,1,0,0,0,1,1h8.14013a1.00029,1.00029,0,0,0,.98487-.8252c.00586-.03369.62793-3.38037,3.085-3.38037a1.00005,1.00005,0,0,0,1-1v-9.022A1.00005,1.00005,0,0,0,31.93506,26.48291Z"></path></g></svg>