<svg height='300px' width='300px'  fill="#000000" xmlns="http://www.w3.org/2000/svg" xmlns:xlink="http://www.w3.org/1999/xlink" version="1.1" x="0px" y="0px" viewBox="0 0 60 60" style="enable-background:new 0 0 60 60;" xml:space="preserve"><path d="M54,30.8583984h-7.9448242v-3.4580078h4.0048828c0.5522461,0,1-0.4472656,1-1v-8.25c0-0.5527344-0.4477539-1-1-1h-4.0048828  v-2.6757813c0-0.5527344-0.4477539-1-1-1h-4.8701172c-0.5522461,0-1,0.4472656-1,1v2.6757813H20.8149414v-2.6757813  c0-0.5527344-0.4477539-1-1-1h-4.8701172c-0.5522461,0-1,0.4472656-1,1v2.6757813H9.9399414c-0.5522461,0-1,0.4472656-1,1v8.25  c0,0.5527344,0.4477539,1,1,1h4.0048828v3.4580078H6c-0.5522461,0-1,0.4472656-1,1v5c0,0.5527344,0.4477539,1,1,1h3.8149414  v7.6669922c0,0.5527344,0.4477539,1,1,1h4.75c0.5522461,0,1-0.4472656,1-1v-7.6669922h26.8701172v7.6669922  c0,0.5527344,0.4477539,1,1,1h4.75c0.5522461,0,1-0.4472656,1-1v-7.6669922H54c0.5522461,0,1-0.4472656,1-1v-5  C55,31.3056641,54.5522461,30.8583984,54,30.8583984z M44.0551758,30.8544922h-2.8701172v-3.4541016h2.8701172V30.8544922z   M41.1850586,15.4746094h2.8701172v1.6757813h-2.8701172V15.4746094z M15.9448242,15.4746094h2.8701172v1.6757813h-2.8701172  V15.4746094z M10.9399414,19.1503906h38.1201172v6.25H10.9399414V19.1503906z M18.8149414,27.4003906v3.4541016h-2.8701172  v-3.4541016H18.8149414z M20.8149414,27.4003906h18.3701172v3.4580078H20.8149414V27.4003906z M14.5649414,44.5253906h-2.75  v-6.6669922h2.75V44.5253906z M48.1850586,44.5253906h-2.75v-6.6669922h2.75V44.5253906z M53,35.8583984h-3.8149414h-4.75  H15.5649414h-4.75H7v-3h46V35.8583984z"></path></svg>