<svg height='300px' width='300px'  fill="#000000" xmlns="http://www.w3.org/2000/svg" viewBox="0 0 100 100" x="0px" y="0px"><title>Wayfinding</title><path d="M14,55V13.81c13.66,0,20.39-.14,23.21.62,4.55,1.19,8.31,5.3,8.31,12,0,14.92-15.08,13-23.21,13V55Zm8.31-34.18V32.45c6.69,0,14.65,1,14.65-5.87S29.14,20.77,22.28,20.77Z"></path><path d="M85.78,73.21a10.69,10.69,0,0,0-13.48-8l-4.24-9.11a4,4,0,0,0-5.34-2l-2.35,1.05a1.36,1.36,0,1,0,1.11,2.48l2.35-1.05a1.33,1.33,0,0,1,1.75.67L68,62.52l-14.23,2a1.08,1.08,0,0,0-.52.24l-3.19,2.77a10.68,10.68,0,1,0,3.25,8.71h4.54a1,1,0,0,0,.71-.29L69.28,65.22l.53,1.14a10.69,10.69,0,1,0,16,6.86Zm-37-1.93a7.25,7.25,0,0,1,1.1,3h-4.5ZM42.7,82.54a7.3,7.3,0,1,1,4.82-12.77l-5.43,4.71a1,1,0,0,0,.66,1.75h7.18A7.3,7.3,0,0,1,42.7,82.54Zm10.64-8.3a10.61,10.61,0,0,0-1.94-5.19l2.14-1.85,2.86,7Zm4.9-.78-2.89-7.13L67,64.69Zm18.65,9.17a7.3,7.3,0,0,1-5.68-13.15L74,75.77a1.36,1.36,0,0,0,2.48-1.11L73.7,68.39l.07,0a7.3,7.3,0,0,1,3.13,14.26Z"></path></svg>