<svg height='300px' width='300px'  fill="#000000" xmlns="http://www.w3.org/2000/svg" data-name="Layer 1" viewBox="0 0 100 100" x="0px" y="0px"><title>picto_vecto</title><path d="M71.47,44.59L70,37.23a3.88,3.88,0,0,0-3.92-2.89H59.75A4.85,4.85,0,0,0,59,30l1.38-2.39A2.51,2.51,0,0,0,56,25.09l-1.38,2.39A4.71,4.71,0,0,0,50,29.65l-2.72,4.71-0.08,0H34.57a3.88,3.88,0,0,0-3.92,2.89l-1.48,7.35a3.14,3.14,0,0,0-.06.74v4.81a3.56,3.56,0,0,0,3.21,3.34l3,28.1A3.78,3.78,0,0,0,39.12,85H61.48a3.78,3.78,0,0,0,3.76-3.37l3.08-28.09a3.56,3.56,0,0,0,3.21-3.35V45.33A3.14,3.14,0,0,0,71.47,44.59ZM51.76,30.65A2.87,2.87,0,0,1,55,29.55a1,1,0,0,0,1.09-.47l1.72-3a0.59,0.59,0,0,1,.86.49l-1.72,3A1,1,0,0,0,57,30.75a2.87,2.87,0,0,1,.65,3.33l-4.76,8.24a14.92,14.92,0,0,1-5.23,0A2.91,2.91,0,0,1,47,38.91ZM31.13,45l1.48-7.35a1.91,1.91,0,0,1,2-1.29H46.17l-0.9,1.57a4.12,4.12,0,0,0-.46,1.26,2.48,2.48,0,0,0-1.66,2.16c0,2.21,3.72,3.22,7.17,3.22s7.17-1,7.17-3.22a2.08,2.08,0,0,0-.77-1.56l2-3.42h7.36a1.91,1.91,0,0,1,2,1.29L69.51,45a1.19,1.19,0,0,1-.27,1,2.18,2.18,0,0,1-1.69.72H33.09A2.18,2.18,0,0,1,31.4,46,1.19,1.19,0,0,1,31.13,45ZM63.25,81.36A1.79,1.79,0,0,1,61.48,83H39.12a1.78,1.78,0,0,1-1.78-1.59l-3-27.83h32Zm4.41-29.81H33a1.7,1.7,0,0,1-1.86-1.4V48.23a4.4,4.4,0,0,0,2,.48H67.55a4.4,4.4,0,0,0,2-.48v1.91A1.71,1.71,0,0,1,67.67,51.54Z"></path><path d="M53.83,60.58a1,1,0,0,0,0,2h3.08a1,1,0,0,0,1-1V58.5a1,1,0,0,0-2,0v0.59a9.56,9.56,0,0,0-12.21,1.07,1,1,0,0,0,1.41,1.41,7.56,7.56,0,0,1,9.44-1H53.83Z"></path><path d="M48.51,74.17a7.56,7.56,0,0,1-5.59-7.67l0.36,0.62a1,1,0,0,0,1.73-1l-1.54-2.66a1,1,0,0,0-1.37-.37l-2.66,1.54a1,1,0,0,0,1,1.73L41,66.06a9.56,9.56,0,0,0,7,10A1,1,0,1,0,48.51,74.17Z"></path><path d="M58.46,63.7a1,1,0,0,0-.71,1.22A7.56,7.56,0,0,1,53.9,73.6L54.26,73a1,1,0,0,0-1.73-1L51,74.64A1,1,0,0,0,51.35,76L54,77.55a1,1,0,0,0,1-1.73l-0.51-.29a9.54,9.54,0,0,0,5.18-11.12A1,1,0,0,0,58.46,63.7Z"></path><path d="M59.65,21.33A1,1,0,0,0,60.36,21a11.54,11.54,0,0,1,8.21-3.4,1,1,0,0,0,0-2,13.52,13.52,0,0,0-9.62,4A1,1,0,0,0,59.65,21.33Z"></path><path d="M68.57,20.5a8.69,8.69,0,0,0-6.18,2.56,1,1,0,1,0,1.41,1.41,6.71,6.71,0,0,1,4.77-2A1,1,0,1,0,68.57,20.5Z"></path></svg>