<svg height='300px' width='300px'  fill="#000000" xmlns="http://www.w3.org/2000/svg" xmlns:xlink="http://www.w3.org/1999/xlink" version="1.1" x="0px" y="0px" viewBox="0 0 100 100" style="enable-background:new 0 0 100 100;" xml:space="preserve"><g><path d="M50,0C30.669,0,15,15.669,15,35c0,20,15,45,15,45h12.5v20h15V80H70c0,0,15-25,15-45C85,15.669,69.331,0,50,0z M52.5,95h-5   V80h5V95z M67.08,75H32.92C29.341,68.447,20,49.912,20,35C20,18.457,33.457,5,50,5s30,13.457,30,30   C80,49.912,70.659,68.447,67.08,75z M50,10c-13.809,0-25,11.191-25,25v5h50v-5C75,21.191,63.809,10,50,10z M58.535,35l3.232-3.232   c0.977-0.977,0.977-2.559,0-3.535s-2.559-0.977-3.535,0L51.465,35H30c0-11.025,8.975-20,20-20s20,8.975,20,20H58.535z M50,50   c-4.141,0-7.5,3.359-7.5,7.5S45.859,65,50,65s7.5-3.359,7.5-7.5S54.141,50,50,50z M50,60c-1.377,0-2.5-1.123-2.5-2.5   S48.623,55,50,55s2.5,1.123,2.5,2.5S51.377,60,50,60z"></path></g></svg>