<svg height='300px' width='300px'  fill="#000000" xmlns:dc="http://purl.org/dc/elements/1.1/" xmlns:cc="http://creativecommons.org/ns#" xmlns:rdf="http://www.w3.org/1999/02/22-rdf-syntax-ns#" xmlns:svg="http://www.w3.org/2000/svg" xmlns="http://www.w3.org/2000/svg" xmlns:sodipodi="http://sodipodi.sourceforge.net/DTD/sodipodi-0.dtd" xmlns:inkscape="http://www.inkscape.org/namespaces/inkscape" viewBox="0 0 32 32.000001" version="1.1" x="0px" y="0px"><g transform="translate(0,-1020.3622)"><g transform="translate(275.99997,-37.000012)"><g transform="translate(-275.99997,39.000012)"><g transform="translate(117.36766,-234.0012)"><path style="color:#000000;font-style:normal;font-variant:normal;font-weight:normal;font-stretch:normal;font-size:medium;line-height:normal;font-family:sans-serif;text-indent:0;text-align:start;text-decoration:none;text-decoration-line:none;text-decoration-style:solid;text-decoration-color:#000000;letter-spacing:normal;word-spacing:normal;text-transform:none;direction:ltr;block-progression:tb;writing-mode:lr-tb;baseline-shift:baseline;text-anchor:start;white-space:normal;clip-rule:nonzero;display:inline;overflow:visible;visibility:visible;opacity:1;isolation:auto;mix-blend-mode:normal;color-interpolation:sRGB;color-interpolation-filters:linearRGB;solid-color:#000000;solid-opacity:1;fill:#000000;fill-opacity:1;fill-rule:evenodd;stroke:none;stroke-width:1;stroke-linecap:butt;stroke-linejoin:miter;stroke-miterlimit:4;stroke-dasharray:none;stroke-dashoffset:0;stroke-opacity:1;color-rendering:auto;image-rendering:auto;shape-rendering:auto;text-rendering:auto;enable-background:accumulate" d="M 15.085938 6.7441406 C 13.868148 6.7441406 12.760611 7.2380562 11.962891 8.0351562 C 11.807563 8.1904996 11.673984 8.3659471 11.542969 8.5429688 L 8.7734375 8.5429688 C 8.0866775 8.5429688 7.5214844 9.1125281 7.5214844 9.7988281 L 7.5214844 12.744141 C 7.5214844 13.430441 8.0866775 14 8.7734375 14 L 10.671875 14 L 10.671875 15 L 10.029297 15 A 0.50005 0.50005 0 0 0 9.5292969 15.5 L 9.5292969 16.597656 C 9.5292969 17.366456 10.162811 18 10.931641 18 L 16.5 18 L 16.5 26 L 17.5 26 L 17.5 18 L 19.5 18 L 19.5 26 L 20.5 26 L 20.5 18 L 21.5 18 L 21.5 24 L 22.5 24 L 22.5 18 L 29.095703 18 C 29.864534 18 30.5 17.366556 30.5 16.597656 L 30.5 16.072266 L 30.5 15.5 C 30.500034 14.165503 30.500178 12.311053 30.5 11.158203 C 30.5 8.7215031 28.522604 6.7441406 26.085938 6.7441406 L 25.482422 6.7441406 L 15.246094 6.7441406 L 15.246094 6.7597656 C 15.191821 6.757786 15.140691 6.7441406 15.085938 6.7441406 z M 15.085938 7.7441406 C 16.985867 7.7441406 18.500001 9.2582031 18.5 11.158203 L 18.5 11.935547 L 18.5 15 L 11.671875 15 L 11.671875 14 L 14.246094 14 C 14.932844 14 15.5 13.430441 15.5 12.744141 L 15.5 9.7988281 C 15.5 9.1125281 14.932844 8.5429688 14.246094 8.5429688 L 12.912109 8.5429688 C 13.502512 8.0515496 14.24989 7.7441406 15.085938 7.7441406 z M 17.851562 7.7441406 L 25.482422 7.7441406 L 26.085938 7.7441406 C 27.985871 7.7441406 29.5 9.2582031 29.5 11.158203 C 29.500156 12.178135 29.500046 13.713259 29.5 15 L 19.5 15 L 19.5 11.935547 L 19.5 11.158203 C 19.5 9.7740573 18.8494 8.5536282 17.851562 7.7441406 z M 9.2207031 9.5429688 L 13.443359 9.5429688 L 11.332031 10.808594 L 9.2207031 9.5429688 z M 14.5 10.076172 L 14.5 12.744141 C 14.5 12.895841 14.394074 13 14.246094 13 L 8.7734375 13 C 8.6254575 13 8.5214844 12.895841 8.5214844 12.744141 L 8.5214844 10.289062 L 11.076172 11.822266 A 0.50005 0.50005 0 0 0 11.589844 11.822266 L 14.5 10.076172 z M 2.5 11 L 2.5 12 L 4.5 12 L 4.5 11 L 2.5 11 z M 5.5 11 L 5.5 12 L 6.5 12 L 6.5 11 L 5.5 11 z M 1.5 13 L 1.5 14 L 2.5 14 L 2.5 13 L 1.5 13 z M 3.5 13 L 3.5 14 L 6.5 14 L 6.5 13 L 3.5 13 z M 10.529297 16 L 18.5 16 L 18.5 16.597656 C 18.5 16.829756 18.327871 17 18.095703 17 L 10.931641 17 C 10.699471 17 10.529297 16.829956 10.529297 16.597656 L 10.529297 16 z M 19.5 16 L 29.5 16 C 29.5 16.019613 29.5 16.053079 29.5 16.072266 L 29.5 16.597656 C 29.5 16.829756 29.327871 17 29.095703 17 L 19.433594 17 C 19.472963 16.871586 19.5 16.73815 19.5 16.597656 L 19.5 16 z " transform="translate(-117.36766,1252.3634)"></path></g></g></g></g></svg>