<svg height='300px' width='300px'  fill="#000000" xmlns="http://www.w3.org/2000/svg" data-name="Layer 1" viewBox="0 0 32 32" x="0px" y="0px"><title>Safari</title><path d="M8.76,23.44a5.26,5.26,0,0,0,0,.92.72.72,0,0,1-.63.8H8a.71.71,0,0,1-.71-.64,5.5,5.5,0,0,1,0-1.24.74.74,0,0,1,.8-.65A.72.72,0,0,1,8.76,23.44Zm1.65-2.28a.72.72,0,0,0-.37-1.4,3.38,3.38,0,0,0-2,1.37.73.73,0,0,0,.19,1,.75.75,0,0,0,.41.12A.69.69,0,0,0,9.25,22,2,2,0,0,1,10.41,21.16ZM20.85,19a7.12,7.12,0,0,1-1.46,1,.72.72,0,0,0-.34,1,.74.74,0,0,0,.66.41.7.7,0,0,0,.31-.07,8.35,8.35,0,0,0,1.77-1.17.72.72,0,0,0,.08-1A.73.73,0,0,0,20.85,19ZM16,20.56a.71.71,0,0,0-.78.65.72.72,0,0,0,.65.79c.27,0,.53,0,.79,0A7.5,7.5,0,0,0,18,21.92a.72.72,0,1,0-.25-1.42A7.22,7.22,0,0,1,16,20.56Zm-1.93-.42a10.28,10.28,0,0,0-1.8-.45.74.74,0,0,0-.83.61.72.72,0,0,0,.61.82,9.1,9.1,0,0,1,1.56.39l.21.07.22,0a.73.73,0,0,0,.69-.51.72.72,0,0,0-.48-.9Zm8.6-1.3a.72.72,0,0,0,.58-.29,8,8,0,0,0,.65-1,.73.73,0,0,0-1.3-.65,6,6,0,0,1-.52.81.73.73,0,0,0,.15,1A.79.79,0,0,0,22.66,18.84Zm2.21-3.4-.4.32,1.45,10.13H6.08L7.84,13.58H21.25a12.14,12.14,0,0,1-1-1.44H6.59L4.41,27.34H27.59L25.77,14.61C25.28,15.1,24.92,15.4,24.87,15.44ZM20.34,7.79a3.63,3.63,0,0,1,7.25,0c0,3.62-3.63,6.52-3.63,6.52S20.34,11.41,20.34,7.79ZM24,9.24a1.45,1.45,0,1,0-1.44-1.45A1.45,1.45,0,0,0,24,9.24Z"></path></svg>