<svg height='300px' width='300px'  fill="#000000" xmlns="http://www.w3.org/2000/svg" xmlns:xlink="http://www.w3.org/1999/xlink" version="1.1" x="0px" y="0px" viewBox="0 0 100 100" style="enable-background:new 0 0 100 100;" xml:space="preserve"><path d="M51.8,7.7c-0.3,0-0.5,0-0.8,0c-0.3,0-0.5,0-0.8,0c-12,0-21.8,8.9-21.8,21.8c0,10.9,14.7,37.3,19,44.8c0.7,1.2,2,2,3.5,2  c0,0,0.1,0,0.1,0c0,0,0.1,0,0.1,0c1.4,0,2.7-0.8,3.5-2c4.3-7.5,19-33.9,19-44.8C73.6,16.6,63.8,7.7,51.8,7.7z M51,40.4  c-5.8,0-10.5-4.7-10.5-10.5c0-5.8,4.7-10.5,10.5-10.5s10.5,4.7,10.5,10.5C61.5,35.7,56.8,40.4,51,40.4z"></path><g><path d="M89.4,90.7l-8.4-31c-0.3-1.1-1.3-1.8-2.4-1.8H65.7c-0.8,1.6-1.6,3.3-2.5,5h1.5L70,79H42.1l-5.2-16.1h2   c-0.9-1.7-1.8-3.4-2.5-5H23.4c-1.1,0-2.1,0.8-2.4,1.8l-8.4,31c-0.2,0.8,0,1.6,0.4,2.2c0.5,0.6,1.2,1,2,1h72c0.8,0,1.5-0.4,2-1   C89.5,92.3,89.6,91.5,89.4,90.7z M25.3,62.9h6.4L34.9,73H22.6L25.3,62.9z M18.3,88.9L21.2,78h15.3L40,88.9H18.3z M69.9,62.9h6.8   L81.1,79h-5.8L69.9,62.9z M45.3,88.9L43.7,84h13.9l1.5,4.9H45.3z M64.3,88.9L62.9,84h19.6l1.3,4.9H64.3z"></path></g></svg>