<svg height='300px' width='300px'  fill="#000000" xmlns="http://www.w3.org/2000/svg" xmlns:xlink="http://www.w3.org/1999/xlink" version="1.1" x="0px" y="0px" viewBox="0 0 69 69" style="enable-background:new 0 0 69 69;" xml:space="preserve"><g><g><path d="M60.94336,22.73975H50.71045v-1.43652c0-1.47266-1.19775-2.66992-2.66992-2.66992h-2.86475v-5.24115    c0.90576-0.65344,1.62482-1.54858,2.05597-2.59448c2.97998,2.05786,9.32208,2.99774,10.4201,2.99774    c2.91309,0,5.2832-2.37012,5.2832-5.2832s-2.37012-5.2832-5.2832-5.2832c-1.09808,0-7.44104,0.94-10.42072,2.99817    c-0.90265-2.18365-3.05621-3.72571-5.56561-3.72571c-2.50592,0-4.65631,1.54279-5.55713,3.72729    C33.12952,4.16949,26.78345,3.229,25.68506,3.229c-2.91309,0-5.2832,2.37012-5.2832,5.2832s2.37012,5.2832,5.2832,5.2832    c1.09833,0,7.4436-0.94037,10.42273-2.99933c0.43048,1.04657,1.1485,1.9425,2.05334,2.59625v5.24097h-2.88086    c-1.47217,0-2.66992,1.19727-2.66992,2.66992v1.43652H17.99902c-4.81836,0-8.73877,3.91992-8.73877,8.73828v14.76172H7.05664    c-0.55225,0-1,0.44727-1,1s0.44775,1,1,1c5.21605,0,8.85911,0,14.146,0c0.55225,0,1-0.44727,1-1s-0.44775-1-1-1h-2.20361V33.58447    c0-0.37012,0.30127-0.67188,0.67139-0.67188h12.93994v1.45117c0,1.47266,1.19775,2.66992,2.66992,2.66992h12.76025    c1.47217,0,2.66992-1.19727,2.66992-2.66992V32.9126h10.23291c1.10303,0,2-0.89746,2-2v-6.17285    C62.94336,23.63721,62.04639,22.73975,60.94336,22.73975z M57.65186,5.229c1.81055,0,3.2832,1.47266,3.2832,3.2832    s-1.47266,3.2832-3.2832,3.2832c-2.98962,0-9.8374-2.08984-9.96667-3.27722c0-0.00232,0.00037-0.00464,0.00037-0.00696    c0-0.00116-0.00018-0.00232-0.00018-0.00348C47.81604,7.3183,54.66254,5.229,57.65186,5.229z M25.68506,11.79541    c-1.81055,0-3.2832-1.47266-3.2832-3.2832s1.47266-3.2832,3.2832-3.2832c2.99365,0,9.85742,2.0957,9.96924,3.28223    C35.54248,9.69971,28.67871,11.79541,25.68506,11.79541z M41.66553,4.50146c2.21259,0,4.01196,1.7923,4.0188,3.99744    c-0.00006,0.00452-0.00122,0.00879-0.00122,0.01331c0,0.00415,0.0011,0.00812,0.0011,0.01227    c-0.00745,2.21063-1.8064,4.00726-4.01868,4.00726c-2.21143,0-4.01025-1.80371-4.01025-4.02051    C37.65527,6.30029,39.4541,4.50146,41.66553,4.50146z M41.66553,14.53174c0.52234,0,1.02661-0.07385,1.51025-0.19952v4.29523    h-3.01465v-4.29437C40.64294,14.45819,41.14526,14.53174,41.66553,14.53174z M19.67041,30.9126    c-1.47314,0-2.67139,1.19824-2.67139,2.67188v12.65527h-5.73877V31.47803c0-3.71582,3.02295-6.73828,6.73877-6.73828h14.61133    v6.17285H19.67041z M48.71045,34.36377c0,0.36914-0.30029,0.66992-0.66992,0.66992H35.28027    c-0.35693,0-0.66992-0.31348-0.66992-0.66992V31.9223c0.00006-0.00342,0.00195-0.00629,0.00195-0.0097v-8.17285    c0-0.00342-0.00189-0.00629-0.00195-0.0097v-2.42682c0-0.36914,0.30029-0.66992,0.66992-0.66992h12.76025    c0.37549,0,0.66992,0.29395,0.66992,0.66992V34.36377z M60.94336,30.9126H50.7251v-6.17285h10.21826V30.9126z"></path><path d="M40.24072,22.15479H37.2041c-0.55225,0-1,0.44727-1,1v5.66797c0,0.55273,0.44775,1,1,1s1-0.44727,1-1v-4.66797h2.03662    c0.55225,0,1-0.44727,1-1S40.79297,22.15479,40.24072,22.15479z"></path><path d="M13.26709,51.74561C12.55664,52.9292,9.0127,58.9585,9.0127,61.38623c0,2.81934,2.29297,5.1123,5.11182,5.1123    s5.11182-2.29297,5.11182-5.1123c0-2.42773-3.54395-8.45703-4.25439-9.64063    C14.62061,51.14404,13.62842,51.14404,13.26709,51.74561z M14.12451,64.49854c-1.71582,0-3.11182-1.39648-3.11182-3.1123    c0-1.20215,1.66699-4.55957,3.11182-7.13184c1.44482,2.57227,3.11182,5.92969,3.11182,7.13184    C17.23633,63.10205,15.84033,64.49854,14.12451,64.49854z"></path></g></g></svg>