<svg height='300px' width='300px'  fill="#000000" xmlns="http://www.w3.org/2000/svg" xmlns:xlink="http://www.w3.org/1999/xlink" version="1.1" x="0px" y="0px" viewBox="0 0 100 100" enable-background="new 0 0 100 100" xml:space="preserve"><circle cx="78.561" cy="13.279" r="6.779"></circle><circle cx="26.659" cy="13.279" r="6.779"></circle><path d="M93.814,30.045c-0.347-4.037-3.728-7.207-7.855-7.207H71.163c-4.127,0-7.508,3.17-7.855,7.207h-0.034v24.238  c0,1.416,1.148,2.564,2.564,2.564s2.564-1.148,2.564-2.564V30.728h1.42v24.847v0.589v33.429c0,2.157,1.749,3.905,3.905,3.905  c2.157,0,3.905-1.749,3.905-3.905V56.165h1.857v33.429c0,2.157,1.749,3.905,3.905,3.905s3.905-1.749,3.905-3.905V56.165v-0.589  V30.728h1.42v23.555c0,1.416,1.148,2.564,2.564,2.564c1.416,0,2.564-1.148,2.564-2.564V30.045H93.814z"></path><path d="M41.859,29.615c-0.542-3.828-3.824-6.776-7.802-6.776H19.261c-3.978,0-7.26,2.948-7.802,6.777L6.216,52.671  c-0.314,1.381,0.551,2.755,1.932,3.069c1.381,0.314,2.755-0.551,3.069-1.932l5.249-23.08h3.493l-7.153,32.304h6.914v27.631  c0,1.567,1.27,2.836,2.836,2.836h0.406c1.566,0,2.836-1.27,2.836-2.836V63.033h0.86h0.585v27.631c0,1.567,1.27,2.836,2.836,2.836  h0.406c1.566,0,2.836-1.27,2.836-2.836V63.033h6.914L33.36,30.728h3.493l5.249,23.08c0.314,1.381,1.688,2.246,3.069,1.932  c1.381-0.314,2.246-1.688,1.932-3.069L41.859,29.615z"></path><rect x="53.22" y="6.5" width="4" height="87"></rect></svg>